<?xml version="1.0" encoding="iso-8859-1"?>
<!-- Uploaded to: SVGRepo, www.svgrepo.com, Transformed by: SVGRepo Tools -->
<svg height="800px" width="800px" version="1.1" id="Layer_1" xmlns="http://www.w3.org/2000/svg" xmlns:xlink="http://www.w3.org/1999/xlink" 
	 viewBox="0 0 511.34 511.34" xml:space="preserve">
<g transform="translate(0 1)">
	<g>
		<path style="fill:#D2D5D7;" d="M457.341,233.493c-1.464,46.349-7.617,100.936-33.864,145.067
			c44.751-15.378,61.242-57.676,61.242-92.78C484.719,260.962,472.853,239.422,457.341,233.493L457.341,233.493z M381.942,404.097
			l14.031-17.345c36.828-45.505,42.676-111.526,43.664-163.948l0.117-5.964l7.132-2.847l1.904-0.072
			c29.723,0,53.895,32.238,53.895,71.86c0,51.344-30.486,106.972-98.609,115.532L381.942,404.097z"/>
		<path style="fill:#D2D5D7;" d="M463.633,483.392l-121.982,8.327c-5.964,0.404-11.273,3.943-13.95,9.288
			c-2.856,5.722-8.704,9.333-15.099,9.333h-70.404h-79.369c-6.413,0-12.27-3.62-15.135-9.36c-2.668-5.336-7.949-8.875-13.905-9.306
			l-113.027-8.282c-7.006-1.24-12.108-5.183-12.108-12.297c0-8.093,6.557-14.65,14.65-14.65h437.787
			c8.084,0,14.65,6.557,14.65,14.65C475.741,478.21,470.639,482.153,463.633,483.392"/>
	</g>
	<g>
		<path style="fill:#E6E6E6;" d="M242.196,159.721c-2.197,0-4.393-0.847-6.057-2.536c-13.771-13.984-20.637-28.506-20.405-43.165
			c0.226-14.27,7.155-28.001,20.597-40.813c10.219-9.516,15.422-19.254,15.539-29.014c0.121-10.075-5.133-20.375-15.614-30.612
			c-3.358-3.28-3.421-8.662-0.141-12.02s8.662-3.422,12.02-0.141c13.936,13.612,20.912,28.071,20.733,42.976
			c-0.174,14.589-7.199,28.446-20.88,41.185c-9.948,9.482-15.105,19.164-15.256,28.708c-0.157,9.932,5.064,20.351,15.52,30.967
			c3.294,3.345,3.253,8.727-0.092,12.021C246.504,158.908,244.35,159.721,242.196,159.721z"/>
		<path style="fill:#E6E6E6;" d="M340.796,159.721c-2.196,0-4.393-0.847-6.056-2.536c-13.772-13.984-20.638-28.506-20.405-43.165
			c0.226-14.27,7.155-28.001,20.597-40.813c10.286-9.578,15.524-19.37,15.641-29.169c0.12-10.04-5.098-20.287-15.51-30.457
			c-3.358-3.28-3.422-8.662-0.142-12.02c3.281-3.357,8.661-3.422,12.021-0.141c13.867,13.544,20.808,27.951,20.63,42.821
			c-0.175,14.629-7.234,28.538-20.983,41.34c-9.947,9.482-15.104,19.164-15.256,28.708c-0.156,9.932,5.064,20.351,15.52,30.967
			c3.295,3.345,3.253,8.727-0.092,12.021C345.105,158.908,342.951,159.721,340.796,159.721z"/>
		<path style="fill:#E6E6E6;" d="M152.165,159.721c-2.197,0-4.393-0.847-6.057-2.536c-13.771-13.984-20.637-28.506-20.405-43.165
			c0.226-14.27,7.155-28.001,20.597-40.813c10.287-9.579,15.525-19.37,15.642-29.17c0.12-10.04-5.098-20.287-15.51-30.456
			c-3.358-3.28-3.421-8.662-0.141-12.02s8.662-3.422,12.02-0.141c13.867,13.544,20.808,27.951,20.63,42.82
			c-0.175,14.63-7.235,28.539-20.984,41.34c-9.948,9.482-15.105,19.164-15.256,28.708c-0.157,9.932,5.064,20.351,15.52,30.967
			c3.294,3.345,3.253,8.727-0.092,12.021C156.473,158.908,154.318,159.721,152.165,159.721z"/>
		<path style="fill:#E6E6E6;" d="M242.196,204.936H35.662c-4.985,0-9.054,4.051-9.009,9.036
			c1.006,116.619,23.283,242.472,215.543,242.472s214.537-125.852,215.543-242.471c0.045-4.985-4.024-9.036-9.009-9.036
			L242.196,204.936L242.196,204.936z"/>
	</g>
	<path style="fill:#D2D5D7;" d="M188.31,420.515c-0.494,0-1.006-0.036-1.509-0.126C115.507,408.29,77.233,367.267,62.69,287.386
		c-0.88-4.877,2.344-9.557,7.231-10.447c4.913-0.88,9.557,2.353,10.447,7.231c13.15,72.282,45.882,107.718,109.442,118.506
		c4.886,0.826,8.174,5.47,7.348,10.357C196.412,417.416,192.613,420.515,188.31,420.515"/>
</g>
<g>
</g>
<g>
</g>
<g>
</g>
<g>
</g>
<g>
</g>
<g>
</g>
<g>
</g>
<g>
</g>
<g>
</g>
<g>
</g>
<g>
</g>
<g>
</g>
<g>
</g>
<g>
</g>
<g>
</g>
</svg>
